<svg width="300" height="300" viewBox="0 0 300 300" fill="none" xmlns="http://www.w3.org/2000/svg">
<rect width="300" height="300" fill="#E0E7FF"/>
<g clip-path="url(#clip0_3_2)">
<path d="M163 126.414L161.586 125L135 151.586L136.414 153L138.414 151H159C159.53 150.999 160.039 150.788 160.413 150.413C160.788 150.039 160.999 149.53 161 149V128.414L163 126.414ZM159 149H140.414L148.207 141.207L150.586 143.586C150.961 143.961 151.47 144.171 152 144.171C152.53 144.171 153.039 143.961 153.414 143.586L155 142L159 145.997V149ZM159 143.168L156.414 140.582C156.039 140.207 155.53 139.997 155 139.997C154.47 139.997 153.961 140.207 153.586 140.582L152 142.168L149.623 139.791L159 130.414V143.168Z" fill="black"/>
<path d="M139 145V142L144 137.003L145.373 138.377L146.789 136.961L145.414 135.586C145.039 135.211 144.53 135 144 135C143.47 135 142.961 135.211 142.586 135.586L139 139.172V129H155V127H139C138.47 127.001 137.961 127.211 137.586 127.586C137.211 127.961 137.001 128.47 137 129V145H139Z" fill="black"/>
</g>
<path d="M120.114 165V158.763H121.239V162.903C121.443 162.579 121.674 162.231 121.932 161.859C122.196 161.481 122.466 161.106 122.742 160.734C123.024 160.362 123.303 160.005 123.579 159.663C123.855 159.315 124.113 159.015 124.353 158.763H125.28V165H124.164V160.536C123.912 160.836 123.645 161.175 123.363 161.553C123.087 161.925 122.814 162.312 122.544 162.714C122.274 163.11 122.013 163.506 121.761 163.902C121.509 164.292 121.281 164.658 121.077 165H120.114ZM126.515 160.437C126.593 160.407 126.689 160.377 126.803 160.347C126.917 160.317 127.04 160.29 127.172 160.266C127.304 160.242 127.442 160.224 127.586 160.212C127.736 160.194 127.886 160.185 128.036 160.185C128.294 160.185 128.54 160.209 128.774 160.257C129.008 160.305 129.212 160.383 129.386 160.491C129.56 160.599 129.698 160.737 129.8 160.905C129.908 161.073 129.962 161.274 129.962 161.508C129.962 161.76 129.893 161.973 129.755 162.147C129.617 162.321 129.458 162.45 129.278 162.534C129.548 162.636 129.755 162.786 129.899 162.984C130.043 163.182 130.115 163.434 130.115 163.74C130.115 163.986 130.061 164.196 129.953 164.37C129.851 164.544 129.707 164.688 129.521 164.802C129.341 164.91 129.128 164.988 128.882 165.036C128.636 165.09 128.369 165.117 128.081 165.117C127.733 165.117 127.409 165.087 127.109 165.027C126.809 164.973 126.572 164.907 126.398 164.829L126.587 163.947C126.701 163.995 126.884 164.052 127.136 164.118C127.388 164.178 127.685 164.208 128.027 164.208C128.687 164.208 129.017 164.016 129.017 163.632C129.017 163.494 128.987 163.383 128.927 163.299C128.867 163.215 128.792 163.152 128.702 163.11C128.612 163.062 128.51 163.032 128.396 163.02C128.282 163.002 128.171 162.993 128.063 162.993H127.163V162.183H128.054C128.276 162.183 128.465 162.144 128.621 162.066C128.783 161.982 128.864 161.838 128.864 161.634C128.864 161.466 128.786 161.334 128.63 161.238C128.48 161.136 128.267 161.085 127.991 161.085C127.871 161.085 127.748 161.094 127.622 161.112C127.496 161.124 127.373 161.142 127.253 161.166C127.139 161.19 127.034 161.217 126.938 161.247C126.842 161.271 126.767 161.295 126.713 161.319L126.515 160.437ZM135.479 162.642C135.479 163.014 135.425 163.353 135.317 163.659C135.209 163.965 135.056 164.226 134.858 164.442C134.66 164.658 134.42 164.826 134.138 164.946C133.862 165.066 133.556 165.126 133.22 165.126C132.884 165.126 132.578 165.066 132.302 164.946C132.026 164.826 131.789 164.658 131.591 164.442C131.393 164.226 131.237 163.965 131.123 163.659C131.015 163.353 130.961 163.014 130.961 162.642C130.961 162.27 131.015 161.934 131.123 161.634C131.237 161.328 131.393 161.067 131.591 160.851C131.795 160.635 132.035 160.47 132.311 160.356C132.587 160.236 132.89 160.176 133.22 160.176C133.55 160.176 133.853 160.236 134.129 160.356C134.411 160.47 134.651 160.635 134.849 160.851C135.047 161.067 135.2 161.328 135.308 161.634C135.422 161.934 135.479 162.27 135.479 162.642ZM134.363 162.642C134.363 162.174 134.261 161.805 134.057 161.535C133.859 161.259 133.58 161.121 133.22 161.121C132.86 161.121 132.578 161.259 132.374 161.535C132.176 161.805 132.077 162.174 132.077 162.642C132.077 163.116 132.176 163.491 132.374 163.767C132.578 164.043 132.86 164.181 133.22 164.181C133.58 164.181 133.859 164.043 134.057 163.767C134.261 163.491 134.363 163.116 134.363 162.642ZM140.642 158.97C140.582 158.982 140.516 158.994 140.444 159.006C140.378 159.018 140.297 159.03 140.201 159.042C140.105 159.054 139.991 159.069 139.859 159.087C139.733 159.099 139.586 159.114 139.418 159.132C139.16 159.162 138.929 159.213 138.725 159.285C138.521 159.351 138.344 159.45 138.194 159.582C138.044 159.708 137.921 159.87 137.825 160.068C137.729 160.266 137.66 160.506 137.618 160.788C137.804 160.668 138.005 160.575 138.221 160.509C138.443 160.443 138.659 160.41 138.869 160.41C139.493 160.41 139.988 160.608 140.354 161.004C140.72 161.4 140.903 161.973 140.903 162.723C140.903 163.083 140.852 163.41 140.75 163.704C140.648 163.998 140.501 164.25 140.309 164.46C140.117 164.67 139.886 164.835 139.616 164.955C139.346 165.069 139.04 165.126 138.698 165.126C138.272 165.126 137.915 165.057 137.627 164.919C137.339 164.775 137.108 164.574 136.934 164.316C136.76 164.052 136.634 163.737 136.556 163.371C136.478 163.005 136.439 162.597 136.439 162.147C136.439 161.559 136.487 161.04 136.583 160.59C136.685 160.134 136.847 159.744 137.069 159.42C137.297 159.096 137.591 158.835 137.951 158.637C138.317 158.433 138.761 158.292 139.283 158.214C139.553 158.172 139.778 158.139 139.958 158.115C140.144 158.091 140.33 158.058 140.516 158.016L140.642 158.97ZM137.582 161.742C137.57 161.82 137.564 161.916 137.564 162.03C137.564 162.138 137.564 162.24 137.564 162.336C137.564 162.606 137.582 162.855 137.618 163.083C137.654 163.311 137.717 163.506 137.807 163.668C137.897 163.83 138.014 163.956 138.158 164.046C138.302 164.136 138.482 164.181 138.698 164.181C138.884 164.181 139.046 164.145 139.184 164.073C139.322 164.001 139.436 163.899 139.526 163.767C139.616 163.635 139.682 163.482 139.724 163.308C139.772 163.128 139.796 162.933 139.796 162.723C139.796 162.543 139.775 162.372 139.733 162.21C139.697 162.042 139.634 161.895 139.544 161.769C139.46 161.637 139.346 161.532 139.202 161.454C139.058 161.376 138.881 161.337 138.671 161.337C138.467 161.337 138.263 161.373 138.059 161.445C137.861 161.517 137.702 161.616 137.582 161.742ZM145.155 162.669C145.155 162.183 145.044 161.805 144.822 161.535C144.606 161.265 144.255 161.13 143.769 161.13C143.667 161.13 143.559 161.136 143.445 161.148C143.337 161.154 143.229 161.172 143.121 161.202V163.893C143.217 163.959 143.343 164.022 143.499 164.082C143.661 164.136 143.832 164.163 144.012 164.163C144.408 164.163 144.696 164.028 144.876 163.758C145.062 163.488 145.155 163.125 145.155 162.669ZM146.271 162.651C146.271 163.011 146.223 163.341 146.127 163.641C146.037 163.941 145.905 164.199 145.731 164.415C145.557 164.631 145.338 164.799 145.074 164.919C144.816 165.039 144.522 165.099 144.192 165.099C143.97 165.099 143.766 165.072 143.58 165.018C143.394 164.964 143.241 164.904 143.121 164.838V166.665H142.032V160.446C142.254 160.386 142.527 160.329 142.851 160.275C143.175 160.221 143.517 160.194 143.877 160.194C144.249 160.194 144.582 160.251 144.876 160.365C145.17 160.479 145.419 160.644 145.623 160.86C145.833 161.07 145.992 161.328 146.1 161.634C146.214 161.934 146.271 162.273 146.271 162.651ZM149.05 164.235C149.386 164.235 149.641 164.217 149.815 164.181V162.975C149.755 162.957 149.668 162.939 149.554 162.921C149.44 162.903 149.314 162.894 149.176 162.894C149.056 162.894 148.933 162.903 148.807 162.921C148.687 162.939 148.576 162.972 148.474 163.02C148.378 163.068 148.3 163.137 148.24 163.227C148.18 163.311 148.15 163.419 148.15 163.551C148.15 163.809 148.231 163.989 148.393 164.091C148.555 164.187 148.774 164.235 149.05 164.235ZM148.96 160.176C149.32 160.176 149.623 160.221 149.869 160.311C150.115 160.401 150.31 160.527 150.454 160.689C150.604 160.851 150.709 161.049 150.769 161.283C150.835 161.511 150.868 161.763 150.868 162.039V164.892C150.7 164.928 150.445 164.97 150.103 165.018C149.767 165.072 149.386 165.099 148.96 165.099C148.678 165.099 148.42 165.072 148.186 165.018C147.952 164.964 147.751 164.877 147.583 164.757C147.421 164.637 147.292 164.481 147.196 164.289C147.106 164.097 147.061 163.86 147.061 163.578C147.061 163.308 147.112 163.08 147.214 162.894C147.322 162.708 147.466 162.558 147.646 162.444C147.826 162.324 148.033 162.24 148.267 162.192C148.507 162.138 148.756 162.111 149.014 162.111C149.134 162.111 149.26 162.12 149.392 162.138C149.524 162.15 149.665 162.174 149.815 162.21V162.03C149.815 161.904 149.8 161.784 149.77 161.67C149.74 161.556 149.686 161.457 149.608 161.373C149.536 161.283 149.437 161.214 149.311 161.166C149.191 161.118 149.038 161.094 148.852 161.094C148.6 161.094 148.369 161.112 148.159 161.148C147.949 161.184 147.778 161.226 147.646 161.274L147.511 160.392C147.649 160.344 147.85 160.296 148.114 160.248C148.378 160.2 148.66 160.176 148.96 160.176ZM151.598 165C151.874 164.538 152.189 164.094 152.543 163.668C152.897 163.236 153.254 162.837 153.614 162.471C153.272 162.105 152.939 161.733 152.615 161.355C152.291 160.971 152.006 160.617 151.76 160.293H153.011C153.197 160.545 153.413 160.824 153.659 161.13C153.911 161.436 154.22 161.811 154.586 162.255V160.293H155.639V162.255C156.017 161.817 156.329 161.442 156.575 161.13C156.821 160.818 157.037 160.539 157.223 160.293H158.456C158.228 160.617 157.952 160.968 157.628 161.346C157.31 161.724 156.974 162.096 156.62 162.462C157.016 162.858 157.379 163.263 157.709 163.677C158.045 164.091 158.354 164.532 158.636 165H157.421C157.301 164.82 157.169 164.631 157.025 164.433C156.887 164.235 156.74 164.04 156.584 163.848C156.434 163.65 156.278 163.461 156.116 163.281C155.954 163.101 155.795 162.933 155.639 162.777V165H154.586V162.777C154.43 162.939 154.271 163.113 154.109 163.299C153.947 163.485 153.788 163.677 153.632 163.875C153.482 164.067 153.335 164.259 153.191 164.451C153.053 164.643 152.927 164.826 152.813 165H151.598ZM158.936 162.669C158.936 162.255 158.996 161.892 159.116 161.58C159.242 161.268 159.407 161.01 159.611 160.806C159.815 160.596 160.049 160.44 160.313 160.338C160.577 160.23 160.847 160.176 161.123 160.176C161.771 160.176 162.275 160.377 162.635 160.779C163.001 161.181 163.184 161.781 163.184 162.579C163.184 162.639 163.181 162.708 163.175 162.786C163.175 162.858 163.172 162.924 163.166 162.984H160.061C160.091 163.362 160.223 163.656 160.457 163.866C160.697 164.07 161.042 164.172 161.492 164.172C161.756 164.172 161.996 164.148 162.212 164.1C162.434 164.052 162.608 164.001 162.734 163.947L162.878 164.838C162.818 164.868 162.734 164.901 162.626 164.937C162.524 164.967 162.404 164.994 162.266 165.018C162.134 165.048 161.99 165.072 161.834 165.09C161.678 165.108 161.519 165.117 161.357 165.117C160.943 165.117 160.583 165.057 160.277 164.937C159.971 164.811 159.719 164.64 159.521 164.424C159.323 164.202 159.176 163.944 159.08 163.65C158.984 163.35 158.936 163.023 158.936 162.669ZM162.095 162.183C162.095 162.033 162.074 161.892 162.032 161.76C161.99 161.622 161.927 161.505 161.843 161.409C161.765 161.307 161.666 161.229 161.546 161.175C161.432 161.115 161.294 161.085 161.132 161.085C160.964 161.085 160.817 161.118 160.691 161.184C160.565 161.244 160.457 161.325 160.367 161.427C160.283 161.529 160.217 161.646 160.169 161.778C160.121 161.91 160.088 162.045 160.07 162.183H162.095ZM168.29 165H167.201V163.029H165.428V165H164.339V160.293H165.428V162.129H167.201V160.293H168.29V165ZM173.796 160.293V165H172.716C172.716 164.658 172.716 164.319 172.716 163.983C172.722 163.647 172.725 163.335 172.725 163.047C172.731 162.759 172.734 162.51 172.734 162.3C172.74 162.084 172.743 161.925 172.743 161.823C172.563 162.057 172.377 162.315 172.185 162.597C171.993 162.879 171.801 163.161 171.609 163.443C171.423 163.725 171.246 164.001 171.078 164.271C170.91 164.541 170.763 164.784 170.637 165H169.674V160.293H170.745C170.745 160.641 170.742 160.974 170.736 161.292C170.736 161.604 170.736 161.889 170.736 162.147C170.736 162.405 170.733 162.63 170.727 162.822C170.727 163.014 170.727 163.161 170.727 163.263C170.895 163.005 171.069 162.741 171.249 162.471C171.429 162.195 171.609 161.928 171.789 161.67C171.975 161.406 172.158 161.157 172.338 160.923C172.518 160.689 172.692 160.479 172.86 160.293H173.796ZM174.924 162.669C174.924 162.255 174.984 161.892 175.104 161.58C175.23 161.268 175.395 161.01 175.599 160.806C175.803 160.596 176.037 160.44 176.301 160.338C176.565 160.23 176.835 160.176 177.111 160.176C177.759 160.176 178.263 160.377 178.623 160.779C178.989 161.181 179.172 161.781 179.172 162.579C179.172 162.639 179.169 162.708 179.163 162.786C179.163 162.858 179.16 162.924 179.154 162.984H176.049C176.079 163.362 176.211 163.656 176.445 163.866C176.685 164.07 177.03 164.172 177.48 164.172C177.744 164.172 177.984 164.148 178.2 164.1C178.422 164.052 178.596 164.001 178.722 163.947L178.866 164.838C178.806 164.868 178.722 164.901 178.614 164.937C178.512 164.967 178.392 164.994 178.254 165.018C178.122 165.048 177.978 165.072 177.822 165.09C177.666 165.108 177.507 165.117 177.345 165.117C176.931 165.117 176.571 165.057 176.265 164.937C175.959 164.811 175.707 164.64 175.509 164.424C175.311 164.202 175.164 163.944 175.068 163.65C174.972 163.35 174.924 163.023 174.924 162.669ZM178.083 162.183C178.083 162.033 178.062 161.892 178.02 161.76C177.978 161.622 177.915 161.505 177.831 161.409C177.753 161.307 177.654 161.229 177.534 161.175C177.42 161.115 177.282 161.085 177.12 161.085C176.952 161.085 176.805 161.118 176.679 161.184C176.553 161.244 176.445 161.325 176.355 161.427C176.271 161.529 176.205 161.646 176.157 161.778C176.109 161.91 176.076 162.045 176.058 162.183H178.083ZM128.865 172.642C128.865 173.014 128.811 173.353 128.703 173.659C128.595 173.965 128.442 174.226 128.244 174.442C128.046 174.658 127.806 174.826 127.524 174.946C127.248 175.066 126.942 175.126 126.606 175.126C126.27 175.126 125.964 175.066 125.688 174.946C125.412 174.826 125.175 174.658 124.977 174.442C124.779 174.226 124.623 173.965 124.509 173.659C124.401 173.353 124.347 173.014 124.347 172.642C124.347 172.27 124.401 171.934 124.509 171.634C124.623 171.328 124.779 171.067 124.977 170.851C125.181 170.635 125.421 170.47 125.697 170.356C125.973 170.236 126.276 170.176 126.606 170.176C126.936 170.176 127.239 170.236 127.515 170.356C127.797 170.47 128.037 170.635 128.235 170.851C128.433 171.067 128.586 171.328 128.694 171.634C128.808 171.934 128.865 172.27 128.865 172.642ZM127.749 172.642C127.749 172.174 127.647 171.805 127.443 171.535C127.245 171.259 126.966 171.121 126.606 171.121C126.246 171.121 125.964 171.259 125.76 171.535C125.562 171.805 125.463 172.174 125.463 172.642C125.463 173.116 125.562 173.491 125.76 173.767C125.964 174.043 126.246 174.181 126.606 174.181C126.966 174.181 127.245 174.043 127.443 173.767C127.647 173.491 127.749 173.116 127.749 172.642ZM133.533 171.202H132.012V175H130.923V171.202H129.411V170.293H133.533V171.202ZM134.085 172.651C134.085 172.303 134.139 171.979 134.247 171.679C134.355 171.373 134.508 171.109 134.706 170.887C134.91 170.665 135.156 170.491 135.444 170.365C135.732 170.239 136.056 170.176 136.416 170.176C136.86 170.176 137.28 170.257 137.676 170.419L137.442 171.31C137.316 171.256 137.172 171.211 137.01 171.175C136.854 171.139 136.686 171.121 136.506 171.121C136.08 171.121 135.756 171.256 135.534 171.526C135.312 171.79 135.201 172.165 135.201 172.651C135.201 173.119 135.306 173.491 135.516 173.767C135.726 174.037 136.08 174.172 136.578 174.172C136.764 174.172 136.947 174.154 137.127 174.118C137.307 174.082 137.463 174.037 137.595 173.983L137.748 174.883C137.628 174.943 137.445 174.997 137.199 175.045C136.959 175.093 136.71 175.117 136.452 175.117C136.05 175.117 135.699 175.057 135.399 174.937C135.105 174.811 134.859 174.64 134.661 174.424C134.469 174.202 134.325 173.941 134.229 173.641C134.133 173.335 134.085 173.005 134.085 172.651ZM142.514 170.293C142.028 172.081 141.464 173.701 140.822 175.153C140.702 175.423 140.579 175.654 140.453 175.846C140.327 176.038 140.186 176.197 140.03 176.323C139.874 176.449 139.7 176.539 139.508 176.593C139.316 176.653 139.094 176.683 138.842 176.683C138.674 176.683 138.506 176.665 138.338 176.629C138.176 176.593 138.053 176.554 137.969 176.512L138.167 175.639C138.383 175.723 138.596 175.765 138.806 175.765C139.088 175.765 139.307 175.696 139.463 175.558C139.625 175.426 139.766 175.219 139.886 174.937C139.544 174.277 139.214 173.557 138.896 172.777C138.584 171.997 138.305 171.169 138.059 170.293H139.22C139.28 170.545 139.352 170.818 139.436 171.112C139.526 171.406 139.622 171.706 139.724 172.012C139.826 172.312 139.934 172.612 140.048 172.912C140.162 173.212 140.276 173.491 140.39 173.749C140.582 173.215 140.762 172.648 140.93 172.048C141.098 171.442 141.251 170.857 141.389 170.293H142.514ZM147.042 171.202H145.521V175H144.432V171.202H142.92V170.293H147.042V171.202ZM147.594 172.651C147.594 172.303 147.648 171.979 147.756 171.679C147.864 171.373 148.017 171.109 148.215 170.887C148.419 170.665 148.665 170.491 148.953 170.365C149.241 170.239 149.565 170.176 149.925 170.176C150.369 170.176 150.789 170.257 151.185 170.419L150.951 171.31C150.825 171.256 150.681 171.211 150.519 171.175C150.363 171.139 150.195 171.121 150.015 171.121C149.589 171.121 149.265 171.256 149.043 171.526C148.821 171.79 148.71 172.165 148.71 172.651C148.71 173.119 148.815 173.491 149.025 173.767C149.235 174.037 149.589 174.172 150.087 174.172C150.273 174.172 150.456 174.154 150.636 174.118C150.816 174.082 150.972 174.037 151.104 173.983L151.257 174.883C151.137 174.943 150.954 174.997 150.708 175.045C150.468 175.093 150.219 175.117 149.961 175.117C149.559 175.117 149.208 175.057 148.908 174.937C148.614 174.811 148.368 174.64 148.17 174.424C147.978 174.202 147.834 173.941 147.738 173.641C147.642 173.335 147.594 173.005 147.594 172.651ZM155.76 171.202H154.239V175H153.15V171.202H151.638V170.293H155.76V171.202ZM158.446 175.09C158.272 175.09 158.095 175.084 157.915 175.072C157.735 175.06 157.561 175.045 157.393 175.027C157.231 175.009 157.078 174.991 156.934 174.973C156.79 174.949 156.67 174.925 156.574 174.901V170.356C156.67 170.332 156.79 170.311 156.934 170.293C157.078 170.269 157.231 170.251 157.393 170.239C157.561 170.221 157.735 170.209 157.915 170.203C158.095 170.191 158.272 170.185 158.446 170.185C159.082 170.185 159.577 170.302 159.931 170.536C160.285 170.764 160.462 171.085 160.462 171.499C160.462 171.715 160.408 171.907 160.3 172.075C160.192 172.243 160.051 172.369 159.877 172.453C160.093 172.537 160.279 172.669 160.435 172.849C160.591 173.029 160.669 173.284 160.669 173.614C160.669 174.088 160.483 174.454 160.111 174.712C159.739 174.964 159.184 175.09 158.446 175.09ZM158.473 172.183C158.743 172.183 158.965 172.144 159.139 172.066C159.319 171.988 159.409 171.832 159.409 171.598C159.409 171.484 159.379 171.391 159.319 171.319C159.265 171.247 159.19 171.19 159.094 171.148C158.998 171.106 158.887 171.079 158.761 171.067C158.635 171.049 158.503 171.04 158.365 171.04C158.257 171.04 158.131 171.043 157.987 171.049C157.849 171.055 157.738 171.064 157.654 171.076V172.183H158.473ZM157.654 174.19C157.726 174.202 157.843 174.214 158.005 174.226C158.173 174.232 158.329 174.235 158.473 174.235C158.797 174.235 159.064 174.19 159.274 174.1C159.49 174.01 159.598 173.839 159.598 173.587C159.598 173.341 159.499 173.173 159.301 173.083C159.109 172.987 158.857 172.939 158.545 172.939H157.654V174.19ZM165.541 170.293C165.055 172.081 164.491 173.701 163.849 175.153C163.729 175.423 163.606 175.654 163.48 175.846C163.354 176.038 163.213 176.197 163.057 176.323C162.901 176.449 162.727 176.539 162.535 176.593C162.343 176.653 162.121 176.683 161.869 176.683C161.701 176.683 161.533 176.665 161.365 176.629C161.203 176.593 161.08 176.554 160.996 176.512L161.194 175.639C161.41 175.723 161.623 175.765 161.833 175.765C162.115 175.765 162.334 175.696 162.49 175.558C162.652 175.426 162.793 175.219 162.913 174.937C162.571 174.277 162.241 173.557 161.923 172.777C161.611 171.997 161.332 171.169 161.086 170.293H162.247C162.307 170.545 162.379 170.818 162.463 171.112C162.553 171.406 162.649 171.706 162.751 172.012C162.853 172.312 162.961 172.612 163.075 172.912C163.189 173.212 163.303 173.491 163.417 173.749C163.609 173.215 163.789 172.648 163.957 172.048C164.125 171.442 164.278 170.857 164.416 170.293H165.541ZM166.016 172.669C166.016 172.255 166.076 171.892 166.196 171.58C166.322 171.268 166.487 171.01 166.691 170.806C166.895 170.596 167.129 170.44 167.393 170.338C167.657 170.23 167.927 170.176 168.203 170.176C168.851 170.176 169.355 170.377 169.715 170.779C170.081 171.181 170.264 171.781 170.264 172.579C170.264 172.639 170.261 172.708 170.255 172.786C170.255 172.858 170.252 172.924 170.246 172.984H167.141C167.171 173.362 167.303 173.656 167.537 173.866C167.777 174.07 168.122 174.172 168.572 174.172C168.836 174.172 169.076 174.148 169.292 174.1C169.514 174.052 169.688 174.001 169.814 173.947L169.958 174.838C169.898 174.868 169.814 174.901 169.706 174.937C169.604 174.967 169.484 174.994 169.346 175.018C169.214 175.048 169.07 175.072 168.914 175.09C168.758 175.108 168.599 175.117 168.437 175.117C168.023 175.117 167.663 175.057 167.357 174.937C167.051 174.811 166.799 174.64 166.601 174.424C166.403 174.202 166.256 173.944 166.16 173.65C166.064 173.35 166.016 173.023 166.016 172.669ZM169.175 172.183C169.175 172.033 169.154 171.892 169.112 171.76C169.07 171.622 169.007 171.505 168.923 171.409C168.845 171.307 168.746 171.229 168.626 171.175C168.512 171.115 168.374 171.085 168.212 171.085C168.044 171.085 167.897 171.118 167.771 171.184C167.645 171.244 167.537 171.325 167.447 171.427C167.363 171.529 167.297 171.646 167.249 171.778C167.201 171.91 167.168 172.045 167.15 172.183H169.175ZM174.965 171.202H173.444V175H172.355V171.202H170.843V170.293H174.965V171.202Z" fill="black"/>
<defs>
<clipPath id="clip0_3_2">
<rect width="32" height="32" fill="white" transform="translate(133 123)"/>
</clipPath>
</defs>
</svg>
